<?xml version="1.0" encoding="UTF-8" standalone="no"?>
<!DOCTYPE svg PUBLIC "-//W3C//DTD SVG 1.1//EN" "http://www.w3.org/Graphics/SVG/1.1/DTD/svg11.dtd">
<svg width="100%" height="100%" viewBox="0 0 42 31" version="1.1" xmlns="http://www.w3.org/2000/svg" xmlns:xlink="http://www.w3.org/1999/xlink" xml:space="preserve" xmlns:serif="http://www.serif.com/" style="fill-rule:evenodd;clip-rule:evenodd;stroke-linejoin:round;stroke-miterlimit:2;">
    <path d="M35.644,17.945L41.813,24.114L35.644,30.283L33.642,28.282L36.563,25.358C28.58,24.493 23.765,20.483 19.09,16.588C13.98,12.326 9.15,8.301 0.188,8.301L0.188,5.469C10.175,5.469 15.63,10.015 20.906,14.411C25.276,18.053 29.438,21.521 36.152,22.453L33.643,19.945L35.644,17.945ZM23.731,14.272C27.465,11.352 31.137,9.228 36.156,8.54L33.642,11.053L35.644,13.055L41.813,6.886L35.644,0.717L33.642,2.718L36.568,5.645C30.127,6.346 25.753,9.099 21.987,12.043L23.731,14.272ZM0.188,22.699L0.188,25.531C8.559,25.531 13.846,22.25 18.311,18.713L16.553,16.495C11.856,20.218 7.275,22.699 0.188,22.699Z" style="fill-rule:nonzero;"/>
</svg>
