<svg width="42" height="31" viewBox="0 0 42 31" fill="none" xmlns="http://www.w3.org/2000/svg">
<path d="M35.6438 17.945L41.8125 24.1137L35.6438 30.2825L33.6422 28.2819L36.5625 25.3578C28.5797 24.4934 23.7647 20.4828 19.0903 16.5875C13.98 12.3256 9.15 8.30094 0.1875 8.30094V5.46875C10.1747 5.46875 15.63 10.0147 20.9062 14.4106C25.2759 18.0528 29.4375 21.5206 36.1519 22.4525L33.6431 19.9447L35.6438 17.945ZM23.7309 14.2719C27.465 11.3525 31.1372 9.22812 36.1556 8.54L33.6422 11.0534L35.6438 13.055L41.8125 6.88625L35.6438 0.717499L33.6422 2.71812L36.5681 5.645C30.1266 6.34625 25.7531 9.09875 21.9872 12.0425L23.7309 14.2719ZM0.1875 22.6991V25.5312C8.55938 25.5312 13.8459 22.25 18.3113 18.7128L16.5534 16.4947C11.8556 20.2175 7.275 22.6991 0.1875 22.6991Z" fill="black"/>
</svg>
