<svg width="23" height="24" viewBox="0 0 23 24" fill="none" xmlns="http://www.w3.org/2000/svg">
<g clip-path="url(#clip0_46_4677)">
<path d="M0.75 17.25C1.164 17.25 1.5 16.9148 1.5 16.5C1.5 14.8455 2.8455 13.5 4.5 13.5C4.914 13.5 5.25 13.1647 5.25 12.75C5.25 12.3353 4.914 12 4.5 12C2.01825 12 4.76837e-07 14.0182 4.76837e-07 16.5C4.76837e-07 16.9148 0.336 17.25 0.75 17.25Z" fill="black"/>
<path d="M3.75 18C4.164 18 4.5 17.6648 4.5 17.25C4.5 16.836 4.83675 16.5 5.25 16.5C5.664 16.5 6 16.1647 6 15.75C6 15.3353 5.664 15 5.25 15C4.0095 15 3 16.0095 3 17.25C3 17.6648 3.336 18 3.75 18Z" fill="black"/>
<path d="M5.25 19.5C5.664 19.5 6 19.1648 6 18.75C6 18.3353 5.664 18 5.25 18C4.83675 18 4.5 17.664 4.5 17.25C4.5 16.8353 4.164 16.5 3.75 16.5C3.336 16.5 3 16.8353 3 17.25C3 18.4905 4.0095 19.5 5.25 19.5Z" fill="black"/>
<path d="M5.24925 16.5C5.27175 16.5 5.295 16.4992 5.3175 16.497L13.5675 15.747C13.98 15.7095 14.2845 15.345 14.247 14.9317C14.2095 14.52 13.842 14.2192 13.4325 14.253L5.1825 15.003C4.77 15.0405 4.4655 15.405 4.503 15.8182C4.53825 16.2067 4.86525 16.5 5.24925 16.5Z" fill="black"/>
<path d="M13.5 15.75C13.692 15.75 13.884 15.6765 14.0302 15.5303L15.5302 14.0303C15.8235 13.737 15.8235 13.263 15.5302 12.9698C15.237 12.6765 14.763 12.6765 14.4697 12.9698L12.9697 14.4698C12.6765 14.763 12.6765 15.237 12.9697 15.5303C13.116 15.6765 13.308 15.75 13.5 15.75Z" fill="black"/>
<path d="M15 14.25C15.192 14.25 15.384 14.1765 15.5302 14.0303C15.8235 13.737 15.8235 13.263 15.5302 12.9698L14.0302 11.4698C13.737 11.1765 13.263 11.1765 12.9697 11.4698C12.6765 11.763 12.6765 12.237 12.9697 12.5303L14.4697 14.0303C14.616 14.1765 14.808 14.25 15 14.25Z" fill="black"/>
<path d="M13.5 12.75C13.914 12.75 14.25 12.4148 14.25 12V10.5C14.25 10.0853 13.914 9.75 13.5 9.75C13.086 9.75 12.75 10.0853 12.75 10.5V12C12.75 12.4148 13.086 12.75 13.5 12.75Z" fill="black"/>
<path d="M13.5 11.25C13.692 11.25 13.884 11.1765 14.0302 11.0303L14.7802 10.2803C15.0735 9.987 15.0735 9.513 14.7802 9.21975C14.487 8.9265 14.013 8.9265 13.7197 9.21975L12.9697 9.96975C12.6765 10.263 12.6765 10.737 12.9697 11.0303C13.116 11.1765 13.308 11.25 13.5 11.25Z" fill="black"/>
<path d="M14.2492 10.5C14.2898 10.5 14.3317 10.497 14.3737 10.4895C15.108 10.3672 15.8018 10.2645 16.449 10.1693C19.9613 9.65175 22.5 9.27825 22.5 6.75C22.5 6.33525 22.164 6 21.75 6C21.336 6 21 6.33525 21 6.75C21 7.8765 19.692 8.17575 16.23 8.68575C15.5738 8.7825 14.871 8.88675 14.127 9.0105C13.719 9.07875 13.4423 9.465 13.5105 9.873C13.5712 10.2397 13.8892 10.5 14.2492 10.5Z" fill="black"/>
<path d="M12 6H16.5C16.914 6 17.25 5.66475 17.25 5.25C17.25 4.83525 16.914 4.5 16.5 4.5H12C11.586 4.5 11.25 4.83525 11.25 5.25C11.25 5.66475 11.586 6 12 6Z" fill="black"/>
<path d="M9.75075 7.5C9.89325 7.5 10.038 7.45875 10.1663 7.374L12.4163 5.874C12.7605 5.64375 12.8535 5.17875 12.624 4.83375C12.3938 4.48875 11.9295 4.39575 11.5838 4.626L9.33375 6.126C8.9895 6.35625 8.8965 6.82125 9.126 7.16625C9.27075 7.383 9.5085 7.5 9.75075 7.5Z" fill="black"/>
<path d="M7.5 1.5L10.5 1.5C10.914 1.5 11.25 1.16475 11.25 0.75C11.25 0.33525 10.914 0 10.5 0L7.5 0C7.086 0 6.75 0.33525 6.75 0.75C6.75 1.16475 7.086 1.5 7.5 1.5Z" fill="black"/>
<path d="M5.25 3.75C5.664 3.75 6 3.41475 6 3C6 2.17275 6.67275 1.5 7.5 1.5C7.914 1.5 8.25 1.16475 8.25 0.75C8.25 0.33525 7.914 0 7.5 0C5.8455 0 4.5 1.3455 4.5 3C4.5 3.41475 4.836 3.75 5.25 3.75Z" fill="black"/>
<path d="M9 7.5C9.414 7.5 9.75 7.16475 9.75 6.75C9.75 6.33525 9.414 6 9 6C7.3455 6 6 4.6545 6 3C6 2.58525 5.664 2.25 5.25 2.25C4.836 2.25 4.5 2.58525 4.5 3C4.5 5.48175 6.51825 7.5 9 7.5Z" fill="black"/>
<path d="M9 7.5H9.75C10.164 7.5 10.5 7.16475 10.5 6.75C10.5 6.33525 10.164 6 9.75 6H9C8.586 6 8.25 6.33525 8.25 6.75C8.25 7.16475 8.586 7.5 9 7.5Z" fill="black"/>
<path d="M12.7508 20.25C13.1318 20.25 13.4573 19.9612 13.4963 19.575C13.5375 19.1625 13.2368 18.795 12.8243 18.7537L5.32425 18.0037C4.90875 17.9722 4.54425 18.264 4.503 18.6757C4.46175 19.0882 4.7625 19.4557 5.175 19.497L12.675 20.247C12.7005 20.2485 12.726 20.25 12.7508 20.25Z" fill="black"/>
<path d="M14.25 21.75C14.442 21.75 14.634 21.6765 14.7802 21.5303C15.0735 21.237 15.0735 20.763 14.7802 20.4698L13.2802 18.9698C12.987 18.6765 12.513 18.6765 12.2197 18.9698C11.9265 19.263 11.9265 19.737 12.2197 20.0303L13.7197 21.5303C13.866 21.6765 14.058 21.75 14.25 21.75Z" fill="black"/>
<path d="M14.25 22.5C14.664 22.5 15 22.1647 15 21.75V21C15 20.5853 14.664 20.25 14.25 20.25C13.836 20.25 13.5 20.5853 13.5 21V21.75C13.5 22.1647 13.836 22.5 14.25 22.5Z" fill="black"/>
<path d="M12.7507 23.25C12.8632 23.25 12.978 23.2245 13.0852 23.1712L14.5852 22.4212C14.9557 22.236 15.1057 21.7852 14.9205 21.4147C14.7352 21.0442 14.2852 20.895 13.914 21.0795L12.414 21.8295C12.0435 22.0147 11.8935 22.4655 12.0787 22.836C12.2107 23.0985 12.4755 23.25 12.7507 23.25Z" fill="black"/>
<path d="M12 22.5H13.5V24H12V22.5Z" fill="black"/>
<path d="M21.0495 7.01775L22.4505 6.48225L20.2028 0.612V0L18.7028 0V0.75C18.7028 0.8415 18.7193 0.93225 18.7523 1.01775L21.0495 7.01775Z" fill="black"/>
<path d="M17.25 16.5H22.5V18H17.25V16.5Z" fill="black"/>
<path d="M20.7211 12.8028L21.2785 14.1963L17.5285 15.6963L16.9712 14.3028L20.7211 12.8028Z" fill="black"/>
<path d="M17.5288 18.8027L21.2784 20.3031L20.7209 21.6964L16.9713 20.196L17.5288 18.8027Z" fill="black"/>
</g>
<defs>
<clipPath id="clip0_46_4677">
<rect width="22.5" height="24" fill="white" transform="matrix(-1 0 0 1 22.5 0)"/>
</clipPath>
</defs>
</svg>
